<?xml version="1.0" encoding="utf-8"?>
<!-- Generator: Adobe Illustrator 21.0.0, SVG Export Plug-In . SVG Version: 6.00 Build 0)  -->
<svg version="1.1" id="Calque_1" xmlns="http://www.w3.org/2000/svg" xmlns:xlink="http://www.w3.org/1999/xlink" x="0px" y="0px"
	 viewBox="0 0 300 300" style="enable-background:new 0 0 300 300;" xml:space="preserve">
<style type="text/css">
	.st0{fill:#14918A;}
	.st1{fill:none;stroke:#FFFFFF;stroke-width:8.4;stroke-linecap:round;stroke-linejoin:round;stroke-miterlimit:10;}
	.st2{font-family:'Quicksand-Bold';}
	.st3{font-size:54.6px;}
</style>
<g>
	<g>
		<path class="st0" d="M151.3,19.5c-47.8,0-84.7,45.9-63,100.3s63,78.5,63,78.5s41.2-24.2,63-78.5S199.1,19.5,151.3,19.5z"/>
		<path class="st1" d="M120.1,171c0,0,44.4-28.2,57.8-45.5c13.4-17.3-5.8-33.1-5.8-33.1s-14.7-12.6,3.9-31.2l32.3,35.7
			c0,0,10.4,12.7,6.2,29.5"/>
		<path class="st1" d="M104.2,150.3c0,0,30.6-22.4,45.6-38.1"/>
		<path class="st1" d="M90.4,124.7c-0.4-0.9,23-27,36.6-36.2"/>
		<path class="st1" d="M82.5,97.4c0,0,12.7-17.6,24.8-27"/>
	</g>
	<text transform="matrix(1 0 0 1 13.9651 277.5391)" class="st0 st2 st3">HANDIBUS</text>
</g>
</svg>
